<?xml version="1.0" standalone="no"?>
<!DOCTYPE svg PUBLIC "-//W3C//DTD SVG 20010904//EN"
 "http://www.w3.org/TR/2001/REC-SVG-20010904/DTD/svg10.dtd">
<svg version="1.0" xmlns="http://www.w3.org/2000/svg"
 width="720.000000pt" height="720.000000pt" viewBox="0 0 720.000000 720.000000"
 preserveAspectRatio="xMidYMid meet">
<metadata>
Created by potrace 1.16, written by Peter Selinger 2001-2019
</metadata>
<g transform="translate(0.000000,720.000000) scale(0.100000,-0.100000)"
fill="#000000" stroke="none">
<path d="M1260 6899 c-41 -5 -115 -20 -164 -34 -433 -124 -746 -493 -795 -938
-15 -134 -15 -4520 0 -4654 57 -512 460 -915 972 -972 134 -15 4520 -15 4654
0 512 57 915 460 972 972 15 134 15 4520 0 4654 -57 512 -460 915 -972 972
-118 13 -4553 13 -4667 0z m1320 -1719 l0 -490 -490 0 -490 0 0 490 0 490 490
0 490 0 0 -490z m3170 -1600 l0 -2090 -490 0 -490 0 0 1600 0 1600 -590 0
-590 0 0 490 0 490 1080 0 1080 0 0 -2090z m-1190 -645 l0 -1445 -485 0 -485
0 0 1445 0 1445 485 0 485 0 0 -1445z m-1200 670 l0 -465 -390 0 -390 0 0
-355 0 -355 390 0 390 0 0 -470 0 -470 -880 0 -880 0 0 1290 0 1290 880 0 880
0 0 -465z"/>
</g>
</svg>
